<?xml version="1.0" standalone="no"?>
<!DOCTYPE svg PUBLIC "-//W3C//DTD SVG 20010904//EN"
 "http://www.w3.org/TR/2001/REC-SVG-20010904/DTD/svg10.dtd">
<svg version="1.0" xmlns="http://www.w3.org/2000/svg"
 width="290.000000pt" height="329.000000pt" viewBox="0 0 290.000000 329.000000"
 preserveAspectRatio="xMidYMid meet">

<g transform="translate(0.000000,329.000000) scale(0.100000,-0.100000)"
fill="#000000" stroke="none">
<path d="M1379 3266 c-4 -4 -21 -8 -39 -11 -38 -5 -34 0 -46 -50 -9 -38 -11
-40 -43 -37 -19 1 -41 8 -48 14 -10 8 -24 8 -53 -2 -22 -7 -40 -17 -40 -22 0
-20 -3 -24 -31 -41 -16 -11 -29 -27 -29 -36 0 -9 -9 -24 -20 -34 -27 -23 -25
-31 13 -62 17 -15 35 -36 40 -47 4 -11 16 -22 27 -25 22 -6 26 -33 10 -63 -13
-25 2 -94 36 -163 52 -104 66 -269 24 -282 -27 -9 -54 -54 -41 -69 8 -10 4
-12 -18 -8 -16 2 -32 -1 -35 -7 -5 -8 37 -11 144 -11 97 0 149 4 145 10 -3 5
0 7 8 4 8 -3 18 -1 22 5 3 6 15 11 25 11 16 0 17 4 9 33 -5 19 -7 82 -5 140 2
59 0 107 -5 107 -5 0 -9 -21 -9 -47 0 -35 -3 -44 -10 -33 -5 8 -10 34 -10 58
0 32 4 44 18 48 9 3 24 8 32 12 8 3 21 4 29 3 7 -1 10 2 6 8 -3 6 -1 11 6 11
8 0 8 4 -1 15 -10 12 -10 15 3 15 19 0 31 -16 18 -24 -5 -4 -8 -14 -6 -24 2
-9 4 -19 4 -22 1 -3 6 2 11 10 7 11 12 12 20 4 8 -8 9 -42 3 -115 -8 -99 -9
-104 -30 -103 -16 0 -23 -5 -23 -18 0 -10 7 -18 15 -18 8 0 15 -7 15 -16 0
-10 -6 -14 -14 -11 -10 4 -13 1 -10 -8 8 -19 89 -47 153 -52 36 -3 49 -8 40
-14 -11 -7 -11 -9 4 -9 9 0 17 6 18 13 0 6 5 -3 10 -22 6 -19 18 -35 29 -38
10 -3 21 -11 24 -18 3 -8 19 -21 35 -30 l31 -16 0 29 c0 16 3 44 7 62 6 30 4
33 -15 28 -12 -4 -20 -2 -16 3 3 5 14 9 25 9 39 0 9 17 -41 24 -28 4 -48 11
-46 15 6 9 -33 56 -52 62 -15 5 -18 111 -5 174 6 28 22 74 37 102 35 70 49
135 36 168 -15 39 -12 52 10 58 11 3 23 13 27 24 4 10 23 33 42 51 l34 32 -21
23 c-12 13 -22 30 -22 39 0 9 -11 23 -24 32 -14 8 -27 24 -30 34 -8 24 -80 49
-98 34 -7 -5 -30 -13 -50 -17 l-36 -7 -7 46 c-4 25 -10 46 -14 47 -3 0 -17 3
-31 5 -56 9 -165 16 -171 10z m146 -66 c20 -16 29 -81 13 -91 -16 -10 -30 21
-17 37 5 6 7 19 3 28 -7 19 -53 22 -55 4 -1 -7 -2 -22 -3 -32 -2 -34 -24 -29
-28 6 -3 29 -6 33 -33 33 -39 0 -41 -29 -2 -33 15 -2 27 -6 27 -9 0 -10 -48
-51 -54 -46 -2 3 -2 -4 1 -16 3 -12 11 -21 19 -21 7 0 18 -9 24 -20 16 -30 49
-24 86 16 38 39 49 22 13 -20 -37 -43 -70 -42 -144 2 -26 16 -30 25 -31 68 -2
61 9 92 38 104 28 12 124 5 143 -10z m-309 -52 c5 -16 8 -17 14 -7 7 10 14 10
33 2 20 -10 25 -19 25 -54 l1 -43 -23 29 c-24 30 -46 28 -46 -5 0 -16 -5 -18
-30 -13 l-30 6 0 -55 c0 -42 -5 -59 -20 -73 -13 -12 -24 -15 -30 -9 -11 11 -2
27 24 41 17 9 16 12 -13 45 -21 24 -29 42 -25 54 3 11 -5 2 -17 -18 -13 -21
-27 -38 -31 -38 -14 0 -9 27 7 40 8 7 15 20 15 30 0 32 55 41 76 13 7 -10 14
-13 14 -7 0 6 -7 17 -15 24 -22 19 -18 38 12 54 32 16 50 12 59 -16z m544 -13
c0 -7 -7 -18 -15 -25 -8 -7 -15 -17 -15 -23 0 -5 9 -2 20 8 24 22 70 13 70
-14 0 -10 9 -26 20 -36 13 -12 17 -22 11 -28 -12 -12 -35 10 -45 41 -4 12 -12
22 -18 22 -6 0 -6 -6 2 -15 10 -12 7 -21 -20 -52 l-32 -36 26 -14 c14 -7 26
-18 26 -23 0 -19 -22 -21 -41 -4 -14 13 -19 30 -19 72 l0 55 -30 -6 c-25 -5
-30 -3 -30 13 0 33 -22 35 -47 4 l-23 -29 0 43 c0 36 4 44 26 54 21 10 27 9
35 -3 5 -8 9 -9 9 -2 0 6 7 18 15 27 13 13 18 13 45 0 16 -9 30 -21 30 -29z
m-435 14 c4 -11 4 -23 0 -27 -7 -7 -25 17 -25 36 0 20 18 14 25 -9z m82 15
c-3 -3 -12 -4 -19 -1 -8 3 -5 6 6 6 11 1 17 -2 13 -5z m103 -4 c0 -5 -7 -10
-15 -10 -8 0 -15 5 -15 10 0 6 7 10 15 10 8 0 15 -4 15 -10z m74 -23 c-7 -18
-24 -23 -24 -8 0 22 13 42 22 33 5 -5 6 -16 2 -25z m-260 -42 c3 -9 0 -15 -9
-15 -8 0 -15 7 -15 15 0 8 4 15 9 15 5 0 11 -7 15 -15z m154 -13 c3 -16 -2
-22 -17 -22 -24 0 -35 15 -27 36 9 23 40 13 44 -14z m112 13 c0 -8 -7 -15 -15
-15 -9 0 -12 6 -9 15 4 8 10 15 15 15 5 0 9 -7 9 -15z m-335 -25 c3 -5 2 -10
-4 -10 -5 0 -13 5 -16 10 -3 6 -2 10 4 10 5 0 13 -4 16 -10z m400 0 c-3 -5
-10 -10 -16 -10 -5 0 -9 5 -9 10 0 6 7 10 16 10 8 0 12 -4 9 -10z m-309 -21
c11 -18 -13 -34 -31 -19 -8 7 -15 16 -15 21 0 13 38 11 46 -2z m244 2 c0 -5
-7 -14 -15 -21 -18 -15 -42 1 -31 19 8 13 46 15 46 2z m-332 -20 c3 -8 -1 -12
-9 -9 -7 2 -15 10 -17 17 -3 8 1 12 9 9 7 -2 15 -10 17 -17z m215 12 c-7 -2
-21 -2 -30 0 -10 3 -4 5 12 5 17 0 24 -2 18 -5z m187 -2 c0 -12 -20 -25 -27
-18 -7 7 6 27 18 27 5 0 9 -4 9 -9z m-460 -11 c0 -5 -2 -10 -4 -10 -3 0 -8 5
-11 10 -3 6 -1 10 4 10 6 0 11 -4 11 -10z m510 6 c0 -3 -4 -8 -10 -11 -5 -3
-10 -1 -10 4 0 6 5 11 10 11 6 0 10 -2 10 -4z m-420 -27 c0 -11 -4 -17 -10
-14 -5 3 -10 13 -10 21 0 8 5 14 10 14 6 0 10 -9 10 -21z m330 14 c0 -5 -5
-15 -10 -23 -8 -12 -10 -11 -10 8 0 12 5 22 10 22 6 0 10 -3 10 -7z m-540 -18
c-7 -8 -17 -15 -22 -15 -6 0 -5 7 2 15 7 8 17 15 22 15 6 0 5 -7 -2 -15z m120
-7 c0 -13 -23 -5 -28 10 -2 7 2 10 12 6 9 -3 16 -11 16 -16z m515 3 c-3 -6
-11 -11 -17 -11 -6 0 -6 6 2 15 14 17 26 13 15 -4z m115 4 c7 -8 8 -15 2 -15
-5 0 -15 7 -22 15 -7 8 -8 15 -2 15 5 0 15 -7 22 -15z m-580 -11 c0 -14 -3
-14 -15 -4 -8 7 -15 14 -15 16 0 2 7 4 15 4 8 0 15 -7 15 -16z m114 8 c2 -4 1
-14 -4 -22 -7 -11 -12 -12 -21 -3 -6 6 -8 16 -5 22 8 13 23 14 30 3z m191 -2
c11 -17 -5 -32 -21 -19 -7 6 -11 15 -8 20 7 12 21 11 29 -1z m35 -11 c0 -6 -4
-7 -10 -4 -5 3 -10 11 -10 16 0 6 5 7 10 4 6 -3 10 -11 10 -16z m70 6 c-7 -9
-15 -13 -17 -11 -7 7 7 26 19 26 6 0 6 -6 -2 -15z m-340 1 c0 -3 -4 -8 -10
-11 -5 -3 -10 -1 -10 4 0 6 5 11 10 11 6 0 10 -2 10 -4z m160 -10 c0 -10 -7
-12 -22 -8 -21 5 -21 6 -2 13 10 4 20 8 22 8 1 1 2 -5 2 -13z m-285 -16 c3 -5
3 -21 -1 -35 -5 -20 -9 -24 -18 -14 -8 8 -8 13 1 16 9 3 10 10 3 24 -11 19 3
28 15 9z m85 0 c0 -5 -4 -10 -10 -10 -5 0 -10 5 -10 10 0 6 5 10 10 10 6 0 10
-4 10 -10z m115 -8 c0 -18 -20 -15 -23 4 -3 10 1 15 10 12 7 -3 13 -10 13 -16z
m125 4 c0 -8 -4 -17 -9 -21 -12 -7 -24 12 -16 25 9 15 25 12 25 -4z m139 -17
c-19 -12 -24 -2 -8 17 9 11 14 13 17 4 3 -7 -2 -16 -9 -21z m51 12 c-7 -14 -6
-21 3 -24 9 -3 9 -8 1 -16 -9 -10 -13 -6 -18 14 -7 27 -1 45 15 45 6 0 6 -7
-1 -19z m-462 -10 c3 -8 -1 -12 -9 -9 -7 2 -15 10 -17 17 -3 8 1 12 9 9 7 -2
15 -10 17 -17z m77 9 c-3 -5 -11 -10 -16 -10 -6 0 -7 5 -4 10 3 6 11 10 16 10
6 0 7 -4 4 -10z m260 0 c3 -5 2 -10 -4 -10 -5 0 -13 5 -16 10 -3 6 -2 10 4 10
5 0 13 -4 16 -10z m-105 -10 c0 -6 -7 -13 -15 -16 -20 -8 -48 3 -40 16 8 13
55 13 55 0z m-145 -19 c-3 -6 -11 -11 -17 -11 -6 0 -6 6 2 15 14 17 26 13 15
-4z m235 4 c10 -12 10 -15 -3 -15 -8 0 -17 7 -21 15 -3 8 -2 15 3 15 5 0 14
-7 21 -15z m-290 -21 c0 -8 -4 -12 -10 -9 -5 3 -10 13 -10 21 0 8 5 12 10 9 6
-3 10 -13 10 -21z m341 -7 c-8 -8 -11 -7 -11 4 0 20 13 34 18 19 3 -7 -1 -17
-7 -23z m-377 8 c3 -8 2 -15 -3 -15 -5 0 -14 7 -21 15 -10 12 -10 15 3 15 8 0
17 -7 21 -15z m423 -2 c-9 -9 -19 -14 -23 -11 -10 10 6 28 24 28 15 0 15 -1
-1 -17z m-315 -15 c-7 -7 -12 -8 -12 -2 0 14 12 26 19 19 2 -3 -1 -11 -7 -17z
m198 1 c0 -6 -4 -7 -10 -4 -5 3 -10 11 -10 16 0 6 5 7 10 4 6 -3 10 -11 10
-16z m-370 -10 c0 -6 -4 -7 -10 -4 -5 3 -10 11 -10 16 0 6 5 7 10 4 6 -3 10
-11 10 -16z m214 6 c-4 -8 -10 -15 -15 -15 -5 0 -9 7 -9 15 0 8 7 15 15 15 9
0 12 -6 9 -15z m56 5 c0 -5 -7 -10 -16 -10 -8 0 -12 5 -9 10 3 6 10 10 16 10
5 0 9 -4 9 -10z m70 -5 c0 -8 -4 -15 -9 -15 -5 0 -11 7 -15 15 -3 9 0 15 9 15
8 0 15 -7 15 -15z m202 -7 c-7 -7 -12 -8 -12 -2 0 14 12 26 19 19 2 -3 -1 -11
-7 -17z m-482 -9 c0 -5 -7 -9 -16 -9 -14 0 -14 -3 -4 -15 7 -8 8 -15 2 -15 -5
0 -15 7 -22 15 -9 10 -9 15 -1 15 6 0 11 7 11 15 0 9 6 12 15 9 8 -4 15 -10
15 -15z m452 -9 c6 0 6 -6 -2 -15 -7 -8 -17 -15 -22 -15 -6 0 -8 7 -4 15 3 8
0 15 -6 15 -6 0 -5 6 3 17 13 15 14 15 17 0 2 -10 8 -17 14 -17z m-422 10 c0
-5 -2 -10 -4 -10 -3 0 -8 5 -11 10 -3 6 -1 10 4 10 6 0 11 -4 11 -10z m46 -17
c-10 -10 -19 5 -10 18 6 11 8 11 12 0 2 -7 1 -15 -2 -18z m268 11 c4 -10 1
-14 -6 -12 -15 5 -23 28 -10 28 5 0 13 -7 16 -16z m51 6 c-3 -5 -11 -10 -16
-10 -6 0 -7 5 -4 10 3 6 11 10 16 10 6 0 7 -4 4 -10z m-185 -10 c0 -5 -7 -10
-16 -10 -8 0 -12 5 -9 10 3 6 10 10 16 10 5 0 9 -4 9 -10z m-275 -10 c3 -5 2
-10 -4 -10 -5 0 -13 5 -16 10 -3 6 -2 10 4 10 5 0 13 -4 16 -10z m177 -12 c-6
-6 -15 -8 -19 -4 -4 4 -1 11 7 16 19 12 27 3 12 -12z m206 3 c3 -8 -1 -12 -9
-9 -7 2 -15 10 -17 17 -3 8 1 12 9 9 7 -2 15 -10 17 -17z m177 9 c-3 -5 -11
-10 -16 -10 -6 0 -7 5 -4 10 3 6 11 10 16 10 6 0 7 -4 4 -10z m-335 -10 c0 -5
-4 -10 -10 -10 -5 0 -10 5 -10 10 0 6 5 10 10 10 6 0 10 -4 10 -10z m110 0 c0
-5 -4 -10 -10 -10 -5 0 -10 5 -10 10 0 6 5 10 10 10 6 0 10 -4 10 -10z m-348
-28 c-6 -2 -8 -11 -5 -20 6 -15 5 -15 -11 -2 -10 8 -13 16 -8 18 6 2 8 11 5
20 -6 15 -5 15 11 2 10 -8 13 -16 8 -18z m103 17 c11 -17 -1 -21 -15 -4 -8 9
-8 15 -2 15 6 0 14 -5 17 -11z m375 -4 c-7 -9 -15 -13 -17 -11 -7 7 7 26 19
26 6 0 6 -6 -2 -15z m102 -7 c-6 -6 -15 -8 -19 -4 -4 4 -1 11 7 16 19 12 27 3
12 -12z m-526 -15 c-7 -7 -26 7 -26 19 0 6 6 6 15 -2 9 -7 13 -15 11 -17z m99
8 c-3 -6 -11 -11 -17 -11 -6 0 -6 6 2 15 14 17 26 13 15 -4z m125 4 c-7 -8
-17 -15 -22 -15 -6 0 -5 7 2 15 7 8 17 15 22 15 6 0 5 -7 -2 -15z m156 -12
c-7 -7 -26 7 -26 19 0 6 6 6 15 -2 9 -7 13 -15 11 -17z m99 8 c-3 -6 -11 -11
-17 -11 -6 0 -6 6 2 15 14 17 26 13 15 -4z m-335 -11 c0 -5 -4 -10 -10 -10 -5
0 -10 5 -10 10 0 6 5 10 10 10 6 0 10 -4 10 -10z m40 0 c0 -5 -7 -10 -16 -10
-8 0 -12 5 -9 10 3 6 10 10 16 10 5 0 9 -4 9 -10z m115 0 c3 -5 2 -10 -4 -10
-5 0 -13 5 -16 10 -3 6 -2 10 4 10 5 0 13 -4 16 -10z m40 0 c3 -5 2 -10 -4
-10 -5 0 -13 5 -16 10 -3 6 -2 10 4 10 5 0 13 -4 16 -10z m195 -5 c-7 -9 -15
-13 -17 -11 -7 7 7 26 19 26 6 0 6 -6 -2 -15z m-490 -11 c0 -8 -4 -12 -10 -9
-5 3 -10 10 -10 16 0 5 5 9 10 9 6 0 10 -7 10 -16z m390 7 c0 -6 -4 -13 -10
-16 -5 -3 -10 1 -10 9 0 9 5 16 10 16 6 0 10 -4 10 -9z m-442 -19 c6 -18 -15
-14 -22 4 -4 10 -1 14 6 12 6 -2 14 -10 16 -16z m233 -15 c-16 -16 -26 0 -10
19 9 11 15 12 17 4 2 -6 -1 -17 -7 -23z m259 18 c-7 -9 -15 -13 -17 -11 -7 7
7 26 19 26 6 0 6 -6 -2 -15z m-308 -17 c-6 -6 -15 -8 -19 -4 -4 4 -1 11 7 16
19 12 27 3 12 -12z m128 0 c0 -13 -23 -5 -28 10 -2 7 2 10 12 6 9 -3 16 -11
16 -16z m-354 -15 c-7 -7 -26 7 -26 19 0 6 6 6 15 -2 9 -7 13 -15 11 -17z
m194 18 c0 -12 -20 -25 -27 -18 -7 7 6 27 18 27 5 0 9 -4 9 -9z m197 -17 c-9
-9 -28 6 -21 18 4 6 10 6 17 -1 6 -6 8 -13 4 -17z m188 7 c-3 -6 -11 -11 -17
-11 -6 0 -6 6 2 15 14 17 26 13 15 -4z m-490 -1 c3 -5 2 -10 -4 -10 -5 0 -13
5 -16 10 -3 6 -2 10 4 10 5 0 13 -4 16 -10z m405 6 c0 -3 -4 -8 -10 -11 -5 -3
-10 -1 -10 4 0 6 5 11 10 11 6 0 10 -2 10 -4z m-454 -33 c-7 -7 -26 7 -26 19
0 6 6 6 15 -2 9 -7 13 -15 11 -17z m502 15 c-2 -6 -10 -14 -16 -16 -7 -2 -10
2 -6 12 7 18 28 22 22 4z m-303 -8 c-3 -5 -11 -10 -16 -10 -6 0 -7 5 -4 10 3
6 11 10 16 10 6 0 7 -4 4 -10z m50 -9 c-3 -6 -11 -11 -17 -11 -6 0 -6 6 2 15
14 17 26 13 15 -4z m50 9 c3 -5 2 -10 -4 -10 -5 0 -13 5 -16 10 -3 6 -2 10 4
10 5 0 13 -4 16 -10z m-261 -16 c3 -8 2 -12 -4 -9 -6 3 -10 10 -10 16 0 14 7
11 14 -7z m408 -6 c-7 -7 -12 -8 -12 -2 0 14 12 26 19 19 2 -3 -1 -11 -7 -17z
m-477 -6 c-3 -3 -11 0 -18 7 -9 10 -8 11 6 5 10 -3 15 -9 12 -12z m185 9 c0
-12 -28 -22 -34 -12 -3 5 -3 11 1 15 9 9 33 7 33 -3z m204 0 c3 -4 3 -11 0
-14 -8 -8 -34 3 -34 14 0 11 27 12 34 0z m171 -1 c-3 -5 -12 -10 -18 -10 -7 0
-6 4 3 10 19 12 23 12 15 0z m-525 -31 c0 -6 -4 -7 -10 -4 -5 3 -10 11 -10 16
0 6 5 7 10 4 6 -3 10 -11 10 -16z m87 15 c-3 -3 -12 -4 -19 -1 -8 3 -5 6 6 6
11 1 17 -2 13 -5z m103 -9 c-10 -12 -9 -15 4 -15 10 0 14 -4 11 -10 -12 -19
-31 -10 -33 15 -1 17 3 25 14 25 14 0 14 -3 4 -15z m217 9 c-3 -3 -12 -4 -19
-1 -8 3 -5 6 6 6 11 1 17 -2 13 -5z m83 2 c0 -3 -4 -8 -10 -11 -5 -3 -10 -1
-10 4 0 6 5 11 10 11 6 0 10 -2 10 -4z m-451 -32 c3 -16 1 -17 -13 -5 -19 16
-21 34 -3 29 6 -3 14 -13 16 -24z m215 11 c-6 -16 -24 -21 -24 -7 0 11 11 22
21 22 5 0 6 -7 3 -15z m206 6 c0 -5 -7 -14 -15 -21 -13 -10 -15 -9 -15 9 0 12
6 21 15 21 8 0 15 -4 15 -9z m-310 -11 c0 -5 -9 -10 -21 -10 -11 0 -17 5 -14
10 3 6 13 10 21 10 8 0 14 -4 14 -10z m205 0 c3 -5 -1 -10 -9 -10 -8 0 -18 5
-21 10 -3 6 1 10 9 10 8 0 18 -4 21 -10z m55 -7 c14 -10 33 -16 43 -15 14 3
17 -4 15 -45 -1 -43 -2 -44 -5 -10 -2 20 -9 37 -15 37 -10 0 -7 -78 8 -177 5
-35 3 -43 -10 -43 -22 0 -20 -13 4 -28 24 -15 28 -47 4 -38 -9 3 -19 6 -24 6
-4 0 -11 16 -15 36 -3 20 -17 61 -31 92 -23 53 -31 147 -10 135 5 -4 6 10 2
31 -8 40 -2 44 34 19z m-420 -14 c0 -6 -4 -7 -10 -4 -5 3 -10 11 -10 16 0 6 5
7 10 4 6 -3 10 -11 10 -16z m104 -8 c-3 -16 -1 -38 5 -48 16 -31 26 -179 12
-187 -8 -5 -10 8 -5 48 4 31 4 56 0 56 -9 0 -46 -86 -54 -129 -6 -25 -14 -35
-30 -37 -29 -5 -29 19 0 38 22 15 22 16 4 33 -12 13 -16 26 -11 44 12 49 17
153 8 162 -5 5 -7 -5 -5 -26 3 -21 0 -35 -7 -35 -6 0 -11 19 -11 46 0 38 3 45
16 40 9 -3 25 1 37 9 34 24 47 19 41 -14z m398 7 c-7 -7 -12 -8 -12 -2 0 14
12 26 19 19 2 -3 -1 -11 -7 -17z m-326 -13 c9 -8 14 -32 14 -57 -1 -24 2 -66
6 -94 5 -43 3 -52 -11 -58 -9 -3 -20 -4 -24 -1 -5 2 -11 50 -15 105 -8 118 -3
138 30 105z m-46 -19 c0 -3 -4 -8 -10 -11 -5 -3 -10 -1 -10 4 0 6 5 11 10 11
6 0 10 -2 10 -4z m243 -158 c5 -39 3 -58 -7 -47 -8 9 -14 89 -6 89 4 0 10 -19
13 -42z m34 -105 c-3 -10 -5 -2 -5 17 0 19 2 27 5 18 2 -10 2 -26 0 -35z
m-197 22 c7 -9 10 -18 6 -22 -3 -3 -6 -1 -6 6 0 8 -7 10 -20 6 -14 -5 -20 -2
-20 9 0 20 24 21 40 1z m340 -79 c0 -3 -4 -8 -10 -11 -5 -3 -10 -1 -10 4 0 6
5 11 10 11 6 0 10 -2 10 -4z"/>
<path d="M1490 2572 l5 -47 3 39 c2 21 0 42 -5 47 -4 4 -6 -13 -3 -39z"/>
<path d="M1389 2281 c-33 -33 -39 -45 -39 -81 0 -150 228 -176 271 -31 24 81
-40 151 -140 151 -49 0 -57 -3 -92 -39z m65 -44 c-5 -7 -2 -5 8 5 12 13 18 15
21 6 4 -10 8 -10 15 1 7 9 12 10 16 2 4 -6 12 -9 17 -6 5 3 6 -1 3 -10 -4 -8
-1 -21 4 -28 7 -8 7 -18 2 -27 -5 -9 -4 -20 3 -30 9 -12 8 -12 -8 1 -23 19
-45 15 -45 -9 -1 -11 -6 -8 -16 11 -8 15 -17 27 -20 27 -3 0 -3 -4 1 -9 3 -5
0 -13 -6 -17 -7 -4 -9 -3 -5 4 3 6 3 13 -2 16 -9 6 -8 47 2 64 4 7 4 18 0 25
-5 9 -4 9 6 0 8 -8 10 -17 4 -26z m70 -93 c3 -8 2 -12 -4 -9 -6 3 -10 10 -10
16 0 14 7 11 14 -7z"/>
<path d="M1087 2263 c4 -21 7 -59 6 -85 -2 -38 0 -46 12 -42 8 4 15 16 15 28
0 11 3 32 7 45 5 20 3 23 -10 18 -20 -7 -20 -3 -8 41 9 28 7 32 -10 32 -18 0
-19 -4 -12 -37z"/>
<path d="M1168 2261 c9 -20 20 -42 25 -48 11 -15 97 -18 97 -3 0 6 -6 10 -12
10 -7 0 -5 5 5 11 20 12 23 35 5 42 -7 2 -1 4 14 4 17 0 28 -5 30 -15 2 -11 6
-8 14 9 l12 25 -103 0 -103 0 16 -35z"/>
<path d="M1632 2263 c23 -37 38 -35 38 6 0 23 -4 27 -29 27 l-28 0 19 -33z"/>
<path d="M1864 2288 c-13 -20 -17 -174 -6 -194 10 -18 11 -17 21 9 6 16 11 36
11 44 0 33 13 1 40 -94 15 -54 30 -105 34 -114 6 -15 2 -15 -37 -6 -50 11
-137 1 -137 -16 0 -6 17 -29 38 -50 l37 -38 -60 29 c-68 33 -141 58 -206 71
-34 7 -14 9 94 10 l137 1 0 50 0 49 -172 3 c-95 2 -264 2 -375 0 l-203 -3 0
-49 0 -50 123 0 122 -1 -85 -23 c-77 -20 -217 -82 -208 -91 2 -2 34 11 72 30
229 111 533 95 756 -40 80 -49 146 -132 196 -249 16 -37 23 -45 26 -30 3 11
16 -17 32 -71 15 -49 34 -105 42 -124 11 -26 12 -36 3 -47 -14 -17 -14 -70 0
-87 10 -13 -23 -92 -58 -137 l-20 -25 -11 30 c-7 17 -12 41 -12 54 0 18 -8 9
-32 -35 -44 -84 -164 -200 -253 -247 -194 -101 -460 -104 -642 -7 -358 191
-439 638 -166 916 34 35 60 64 57 64 -4 0 18 25 48 56 l55 56 -103 -4 c-88 -3
-101 -1 -96 12 18 41 70 230 64 230 -4 0 -13 -7 -21 -16 -7 -9 -32 -29 -55
-45 l-42 -29 -7 53 c-3 28 -9 72 -12 95 l-6 44 -26 -49 c-15 -26 -57 -88 -95
-138 -37 -49 -82 -113 -98 -142 -16 -29 -32 -53 -34 -53 -2 0 -8 18 -14 40 -5
22 -15 59 -21 81 l-10 42 -63 -124 c-66 -134 -96 -233 -96 -325 l0 -57 -25 23
c-14 13 -27 21 -31 18 -3 -3 -1 -30 4 -59 6 -30 9 -55 7 -57 -2 -2 -18 4 -35
13 l-33 17 7 -27 c13 -52 18 -85 14 -85 -3 0 -18 4 -34 9 -80 26 -82 23 -29
-32 34 -34 71 -91 109 -166 32 -62 55 -115 52 -118 -3 -3 -25 -8 -49 -10 -39
-5 -46 -3 -52 16 -13 43 -32 21 -55 -64 -13 -47 -26 -88 -30 -90 -3 -2 -43 36
-89 86 -45 49 -87 89 -92 89 -25 0 36 -190 101 -319 26 -53 71 -129 98 -169
62 -91 220 -282 233 -282 5 0 21 7 34 16 23 15 26 15 62 -14 112 -88 344 -204
499 -250 159 -47 297 -66 444 -59 263 13 531 106 772 268 87 59 111 68 123 49
21 -34 82 22 218 202 84 112 142 211 189 325 40 96 73 221 62 232 -3 3 -46
-37 -95 -89 -59 -64 -89 -90 -93 -80 -9 28 -25 85 -36 128 -12 45 -34 56 -43
21 -5 -19 -11 -21 -52 -17 -25 3 -48 8 -51 11 -13 13 113 234 161 284 49 51
50 52 20 46 -16 -3 -43 -12 -59 -19 -28 -14 -28 -14 -22 16 3 17 9 44 12 61
l7 31 -31 -16 c-17 -9 -33 -16 -35 -16 -5 0 9 83 19 114 6 17 1 15 -27 -9
l-34 -28 -7 89 c-8 106 -28 167 -101 309 l-55 106 -18 -71 c-10 -38 -21 -70
-24 -70 -3 0 -15 17 -26 38 -12 20 -60 84 -107 142 -46 58 -94 123 -105 145
l-20 40 -6 -70 c-4 -39 -10 -82 -14 -98 l-7 -27 -57 45 c-45 35 -58 51 -58 73
0 44 -12 102 -21 102 -4 0 -11 -5 -15 -12z m13 -110 c-3 -7 -5 -2 -5 12 0 14
2 19 5 13 2 -7 2 -19 0 -25z m-206 -159 c23 -12 25 -29 4 -29 -18 0 -20 -16
-3 -26 7 -4 8 -3 4 4 -4 7 -3 12 3 12 5 0 12 -6 14 -12 3 -7 6 -2 6 12 1 15
-4 31 -11 38 -9 9 4 12 60 12 l72 0 0 -40 0 -40 -365 0 -365 0 0 40 0 40 281
-1 c169 0 289 -4 300 -10z m-869 -536 c-18 -89 -11 -229 17 -306 19 -54 19
-62 6 -94 l-15 -36 -20 26 c-12 14 -30 47 -41 72 -18 40 -19 51 -9 76 10 22
10 36 1 57 -10 24 -8 41 14 107 14 42 25 82 25 87 0 11 28 78 33 78 2 0 -3
-30 -11 -67z m76 -423 c12 -22 42 -64 67 -94 38 -47 42 -56 29 -67 -12 -10
-20 -7 -43 15 -34 33 -76 108 -86 154 -9 44 5 40 33 -8z m1149 -42 c-13 -29
-40 -71 -59 -92 -31 -35 -36 -38 -57 -27 -22 12 -22 13 26 64 27 29 63 72 79
96 38 58 45 31 11 -41z m-1699 -83 c44 -104 131 -247 207 -342 30 -37 51 -71
49 -75 -3 -4 -36 -26 -73 -48 -59 -35 -68 -44 -63 -63 5 -20 4 -21 -12 -7 -66
53 -234 295 -296 425 -40 84 -83 202 -78 215 2 4 37 -30 78 -76 41 -46 77 -84
80 -84 3 0 17 41 30 91 18 64 27 85 32 72 4 -10 25 -58 46 -108z m2312 40 c12
-44 24 -84 27 -88 3 -5 41 29 85 75 69 73 78 79 73 53 -31 -144 -189 -417
-334 -575 -42 -46 -50 -52 -51 -33 0 17 -18 33 -70 64 -38 23 -70 44 -70 46 0
3 22 33 49 67 94 119 217 334 251 439 7 21 13 37 15 35 2 -2 13 -39 25 -83z
m-2280 22 c46 -62 48 -67 19 -67 -15 0 -26 14 -45 55 -37 85 -32 88 26 12z
m2204 2 c-10 -24 -22 -50 -27 -56 -9 -13 -47 -18 -47 -8 0 10 83 116 87 112 2
-3 -4 -24 -13 -48z m-2017 -286 c63 -45 64 -47 42 -59 -23 -12 -23 -12 16 -28
21 -9 49 -19 62 -22 36 -9 38 -24 3 -24 -17 0 -29 -4 -25 -9 3 -6 -3 -15 -13
-20 -21 -11 -37 3 -99 84 -36 46 -133 201 -133 211 0 4 18 -14 41 -40 23 -26
70 -67 106 -93z m1932 106 c-25 -48 -104 -164 -147 -217 -25 -32 -46 -58 -48
-60 -6 -8 -44 20 -39 28 3 5 -9 10 -27 12 -37 4 -35 6 57 39 l60 22 -29 12
-30 12 42 27 c23 14 69 53 104 86 35 32 64 59 66 60 1 0 -2 -10 -9 -21z
m-1722 -335 c149 -107 310 -170 514 -200 306 -45 664 40 880 210 l53 42 94
-54 c51 -30 91 -59 90 -64 -7 -19 -188 -140 -288 -192 -287 -149 -608 -205
-875 -152 -241 47 -526 180 -708 330 l-29 23 89 56 c48 31 91 56 95 56 4 1 42
-24 85 -55z m131 0 c38 -5 53 -11 58 -26 7 -24 40 -37 79 -31 22 3 36 -1 49
-16 14 -15 31 -21 63 -21 28 0 51 -6 61 -16 12 -13 28 -15 73 -10 44 4 60 2
70 -10 46 -56 162 -56 208 -1 11 14 24 16 67 11 41 -5 59 -3 78 10 14 9 43 16
65 16 30 0 44 6 58 24 15 20 22 22 50 14 38 -10 68 2 78 31 4 13 19 20 57 25
28 4 74 16 102 26 l51 20 -25 -21 c-127 -101 -362 -186 -582 -210 -238 -26
-545 46 -734 173 -41 27 -74 51 -74 53 0 2 22 -5 49 -15 27 -11 71 -22 99 -26z"/>
<path d="M1415 2000 c4 -22 -10 -28 -18 -7 -4 7 -6 6 -6 -4 -1 -9 8 -19 19
-22 16 -4 20 0 20 18 0 13 -4 26 -9 30 -6 3 -8 -4 -6 -15z"/>
<path d="M1210 1985 c0 -8 4 -15 9 -15 5 0 16 -3 25 -6 12 -4 16 0 16 15 0 23
-15 29 -23 9 -4 -10 -6 -10 -6 0 -1 17 -21 15 -21 -3z"/>
<path d="M1293 1992 c-13 -2 -23 -8 -23 -13 0 -6 4 -8 9 -5 5 4 20 2 34 -3 21
-8 26 -6 30 10 3 10 1 19 -4 19 -5 0 -9 -6 -9 -12 0 -8 -3 -9 -8 -3 -4 6 -17
9 -29 7z"/>
<path d="M1445 1991 c-11 -11 -4 -20 12 -14 10 4 14 2 10 -4 -3 -5 0 -10 8
-10 8 0 15 8 15 17 0 14 -34 23 -45 11z"/>
<path d="M1560 1991 c-8 -6 -19 -7 -25 -4 -5 3 -4 0 2 -7 21 -23 53 -23 53 0
0 22 -7 25 -30 11z"/>
<path d="M1606 1992 c-4 -7 0 -15 11 -19 10 -3 21 -8 26 -10 4 -2 7 5 7 16 0
12 -5 21 -11 21 -5 0 -7 -4 -4 -10 3 -5 2 -10 -4 -10 -5 0 -11 5 -13 12 -3 9
-6 9 -12 0z"/>
<path d="M966 284 c5 -19 4 -25 -5 -20 -13 8 -14 4 -5 -18 5 -13 10 -13 27 -4
12 6 26 16 30 22 5 6 5 -5 2 -24 -6 -33 -5 -34 10 -16 8 11 15 24 15 29 0 4 4
6 10 2 6 -4 6 -15 0 -30 -6 -17 -6 -25 1 -25 6 0 13 9 16 20 8 31 24 24 17 -7
l-6 -28 21 25 c11 14 23 21 27 17 4 -4 2 -7 -4 -7 -7 0 -12 -4 -12 -10 0 -5 6
-10 14 -10 8 0 18 -10 22 -22 l8 -23 6 25 7 25 11 -25 11 -25 7 23 c3 12 10
22 15 22 5 0 9 5 9 10 0 6 -4 10 -10 10 -5 0 -20 11 -34 25 -25 25 -71 34 -78
15 -1 -5 -32 4 -66 20 -35 17 -66 30 -68 30 -2 0 -1 -12 2 -26z m194 -39 c27
-15 20 -19 -17 -9 -13 4 -23 10 -23 15 0 12 11 11 40 -6z"/>
<path d="M1810 263 c-126 -52 -131 -54 -92 -48 20 3 31 1 27 -5 -3 -6 -13 -10
-21 -10 -8 0 -14 -5 -14 -11 0 -6 7 -8 16 -5 9 3 32 6 51 6 33 0 35 2 29 25
-8 30 10 34 19 5 3 -11 11 -20 17 -20 6 0 7 8 3 18 -11 29 -11 34 4 40 8 2 11
0 7 -6 -8 -14 20 -23 50 -16 20 5 22 9 13 25 -5 11 -7 24 -4 29 10 16 -16 10
-105 -27z m88 -5 c-2 -6 -10 -14 -16 -16 -7 -2 -10 2 -6 12 7 18 28 22 22 4z
m-113 -37 c3 -5 1 -12 -5 -16 -5 -3 -10 1 -10 9 0 18 6 21 15 7z"/>
<path d="M1394 205 c19 -14 18 -15 -15 -16 -19 -1 -26 -3 -16 -6 12 -3 16 -11
12 -22 -3 -11 2 -24 12 -32 15 -12 16 -12 10 3 -4 12 -2 15 9 11 7 -3 14 -9
14 -14 0 -5 5 -9 10 -9 6 0 10 12 11 28 0 25 1 25 9 6 5 -14 20 -23 39 -26 29
-4 31 -2 32 26 2 30 2 30 6 4 5 -34 23 -37 23 -4 0 13 6 27 13 29 6 3 -20 6
-59 6 -51 1 -75 5 -84 16 -7 8 -20 15 -29 15 -13 -1 -13 -3 3 -15z m21 -35 c3
-5 1 -10 -4 -10 -6 0 -11 5 -11 10 0 6 2 10 4 10 3 0 8 -4 11 -10z m75 -14 c0
-3 -4 -8 -10 -11 -5 -3 -10 -1 -10 4 0 6 5 11 10 11 6 0 10 -2 10 -4z"/>
<path d="M1255 190 c-8 -14 3 -30 21 -30 8 0 14 9 14 20 0 21 -24 28 -35 10z"/>
<path d="M1605 190 c-4 -7 -3 -16 3 -22 14 -14 45 -2 40 15 -6 16 -34 21 -43
7z"/>
<path d="M1046 2259 c-9 -48 -7 -105 5 -136 10 -26 12 -27 19 -8 5 11 9 45 9
75 1 91 -20 134 -33 69z"/>
<path d="M1648 2188 c-1 -18 -1 -44 0 -58 1 -14 -2 -20 -6 -15 -4 6 -18 -1
-34 -17 l-27 -28 39 0 c31 0 43 5 56 25 14 22 15 31 4 70 -16 57 -29 66 -32
23z"/>
<path d="M1288 2189 c-22 -12 -24 -59 -4 -59 8 0 26 -13 39 -30 14 -16 35 -30
47 -30 20 0 19 2 -9 38 -16 20 -31 48 -33 61 -4 28 -16 34 -40 20z"/>
<path d="M1133 2132 c-12 -4 -31 -19 -43 -34 l-21 -28 30 0 c18 0 31 -5 31
-12 0 -9 4 -8 10 2 9 13 11 13 20 0 6 -10 10 -11 10 -2 0 8 23 12 80 12 45 0
80 4 80 10 0 16 -45 40 -78 43 -16 1 -28 5 -25 10 5 8 -63 8 -94 -1z m57 -26
c0 -3 -4 -8 -10 -11 -5 -3 -10 -1 -10 4 0 6 5 11 10 11 6 0 10 -2 10 -4z m30
0 c0 -3 -4 -8 -10 -11 -5 -3 -10 -1 -10 4 0 6 5 11 10 11 6 0 10 -2 10 -4z"/>
<path d="M1830 2124 c0 -10 5 -26 10 -34 8 -11 9 -7 4 15 -8 37 -14 45 -14 19z"/>
<path d="M1740 2100 c0 -20 5 -30 15 -30 8 0 21 14 30 30 l16 30 -31 0 c-27 0
-30 -3 -30 -30z"/>
<path d="M1703 2108 c-24 -32 -24 -38 1 -38 21 0 26 5 26 25 0 27 -12 32 -27
13z"/>
<path d="M1797 2097 c-4 -10 -4 -24 0 -33 5 -13 7 -13 14 -2 7 11 11 10 19 -2
5 -8 10 -10 10 -4 0 7 -8 22 -18 34 -16 20 -19 21 -25 7z"/>
<path d="M1365 1770 c-118 -24 -235 -98 -302 -191 -91 -127 -79 -334 28 -464
137 -167 391 -216 590 -115 56 29 142 113 172 167 87 160 66 329 -56 459 -111
119 -278 175 -432 144z m220 -26 c70 -19 170 -81 211 -130 19 -23 46 -66 62
-96 24 -48 27 -63 27 -158 0 -101 -1 -108 -34 -168 -50 -92 -151 -179 -240
-207 -18 -5 -22 -4 -16 6 6 11 5 12 -6 2 -7 -7 -26 -13 -42 -13 -16 0 -26 -4
-22 -10 9 -14 -111 -13 -174 2 -36 8 -48 14 -39 21 9 6 5 7 -11 4 -26 -6 -73
11 -65 24 3 5 -1 6 -9 4 -23 -9 -143 110 -174 173 -23 47 -28 72 -30 152 -3
81 0 103 19 150 13 30 28 55 35 55 6 0 15 4 20 9 5 5 3 6 -4 2 -22 -12 -14 10
9 30 19 15 20 16 9 2 -21 -28 -7 -21 20 9 13 15 16 21 7 14 -11 -8 -18 -9 -18
-3 0 17 74 70 142 102 103 48 208 56 323 24z"/>
<path d="M1268 1673 c7 -3 16 -2 19 1 4 3 -2 6 -13 5 -11 0 -14 -3 -6 -6z"/>
<path d="M1328 1673 c7 -3 16 -2 19 1 4 3 -2 6 -13 5 -11 0 -14 -3 -6 -6z"/>
<path d="M1588 1673 c12 -2 30 -2 40 0 9 3 -1 5 -23 4 -22 0 -30 -2 -17 -4z"/>
<path d="M1668 1663 c7 -3 16 -2 19 1 4 3 -2 6 -13 5 -11 0 -14 -3 -6 -6z"/>
<path d="M1700 1656 c0 -2 7 -7 16 -10 8 -3 12 -2 9 4 -6 10 -25 14 -25 6z"/>
<path d="M1459 1623 l-24 -28 28 24 c25 23 32 31 24 31 -2 0 -14 -12 -28 -27z"/>
<path d="M1670 1616 c0 -2 7 -7 16 -10 8 -3 12 -2 9 4 -6 10 -25 14 -25 6z"/>
<path d="M1562 1560 c0 -19 2 -27 5 -17 2 9 2 25 0 35 -3 9 -5 1 -5 -18z"/>
<path d="M1178 1563 c-18 -21 -31 -43 -25 -43 2 0 13 14 25 30 25 33 24 41 0
13z"/>
<path d="M1329 1533 c-13 -16 -12 -17 4 -4 9 7 17 15 17 17 0 8 -8 3 -21 -13z"/>
<path d="M1235 1520 c3 -5 8 -10 11 -10 2 0 4 5 4 10 0 6 -5 10 -11 10 -5 0
-7 -4 -4 -10z"/>
<path d="M1371 1510 c-13 -11 -19 -20 -14 -20 6 0 18 9 28 20 23 25 17 25 -14
0z"/>
<path d="M1273 1513 c9 -2 23 -2 30 0 6 3 -1 5 -18 5 -16 0 -22 -2 -12 -5z"/>
<path d="M1833 1465 c0 -33 2 -45 4 -27 2 18 2 45 0 60 -2 15 -4 0 -4 -33z"/>
<path d="M1452 1484 c10 -10 20 -16 22 -13 3 3 -5 11 -17 18 -21 13 -21 12 -5
-5z"/>
<path d="M1554 1488 c-4 -7 -3 -8 4 -4 8 4 12 -15 15 -61 l3 -68 2 73 c2 67
-7 88 -24 60z"/>
<path d="M1653 1415 c0 -33 2 -45 4 -27 2 18 2 45 0 60 -2 15 -4 0 -4 -33z"/>
<path d="M1043 1425 c0 -22 2 -30 4 -17 2 12 2 30 0 40 -3 9 -5 -1 -4 -23z"/>
<path d="M1453 1325 c0 -22 2 -30 4 -17 2 12 2 30 0 40 -3 9 -5 -1 -4 -23z"/>
<path d="M1766 1325 c-11 -8 -15 -15 -9 -15 6 0 16 7 23 15 16 19 11 19 -14 0z"/>
<path d="M1085 1310 c10 -11 20 -20 23 -20 3 0 -3 9 -13 20 -10 11 -20 20 -23
20 -3 0 3 -9 13 -20z"/>
<path d="M1349 1313 c-13 -16 -12 -17 4 -4 9 7 17 15 17 17 0 8 -8 3 -21 -13z"/>
<path d="M1643 1225 c0 -44 2 -61 4 -37 2 23 2 59 0 80 -2 20 -4 1 -4 -43z"/>
<path d="M1285 1275 c-16 -8 -23 -14 -14 -15 8 0 24 7 35 15 23 18 18 18 -21
0z"/>
<path d="M1362 1180 c0 -14 2 -19 5 -12 2 6 2 18 0 25 -3 6 -5 1 -5 -13z"/>
<path d="M1442 1137 c-1 -32 -7 -68 -13 -80 -7 -12 -8 -19 -4 -15 4 4 13 0 20
-9 10 -13 11 -11 7 16 -5 34 10 58 43 71 15 7 16 9 4 9 -9 1 -23 -6 -30 -16
-12 -14 -15 -11 -20 33 l-6 49 -1 -58z"/>
<path d="M1225 1150 c-10 -11 -16 -22 -14 -24 2 -2 12 7 22 20 22 29 17 32 -8
4z"/>
<path d="M1362 1125 c0 -16 2 -22 5 -12 2 9 2 23 0 30 -3 6 -5 -1 -5 -18z"/>
<path d="M1528 1093 c5 -21 7 -23 10 -9 2 10 0 22 -6 28 -6 6 -7 0 -4 -19z"/>
<path d="M1562 1082 c-2 -34 -7 -44 -24 -52 -16 -6 -18 -9 -7 -9 26 -1 41 25
36 66 l-4 38 -1 -43z"/>
<path d="M1201 1094 c-1 -11 6 -29 15 -40 8 -10 12 -13 9 -6 -4 8 -11 26 -15
40 -7 22 -8 23 -9 6z"/>
<path d="M1286 1095 c-11 -8 -15 -15 -9 -15 6 0 16 7 23 15 16 19 11 19 -14 0z"/>
<path d="M945 1648 c-12 -19 -13 -25 -2 -33 18 -14 19 -55 1 -55 -10 0 -13 7
-8 25 7 29 2 31 -20 9 -12 -11 -13 -20 -6 -34 9 -16 8 -18 -6 -13 -12 4 -15 2
-12 -8 2 -8 15 -15 27 -17 33 -5 20 -26 -20 -32 -30 -5 -32 -7 -15 -16 16 -10
16 -12 2 -17 -19 -7 -21 -38 -4 -55 9 -9 9 -12 0 -12 -7 0 -12 -13 -12 -30 0
-28 3 -30 35 -30 38 0 44 12 19 38 -14 13 -14 17 -2 26 20 15 29 44 16 52 -7
4 -6 9 2 14 6 4 12 23 13 41 1 19 8 39 16 45 8 6 12 20 9 32 -4 13 -2 19 6 16
12 -5 41 34 32 43 -3 3 -13 0 -23 -8 -11 -9 -14 -10 -9 -1 4 7 1 19 -8 27 -13
14 -16 13 -31 -7z m-25 -218 c0 -5 -7 -10 -15 -10 -8 0 -15 5 -15 10 0 6 7 10
15 10 8 0 15 -4 15 -10z"/>
<path d="M1977 1573 c5 -15 3 -16 -8 -5 -19 17 -29 15 -29 -8 0 -12 7 -20 17
-20 15 0 14 -2 -3 -16 -19 -15 -19 -16 1 -9 11 4 29 9 40 12 20 4 20 4 1 -11
-11 -9 -26 -16 -33 -16 -7 0 -13 -5 -13 -11 0 -6 9 -8 23 -4 37 12 41 11 45
-10 3 -16 1 -17 -8 -8 -18 17 -40 4 -40 -24 0 -22 3 -24 30 -18 19 4 30 3 30
-4 0 -6 -13 -11 -30 -11 -16 0 -30 -4 -30 -10 0 -5 18 -9 40 -8 l40 1 -6 36
c-4 20 -11 44 -16 54 -6 12 -5 19 7 23 8 3 15 16 14 28 0 19 -1 19 -11 -4 -10
-25 -10 -25 -31 18 -20 41 -42 59 -30 25z m23 -123 c0 -5 -2 -10 -4 -10 -3 0
-8 5 -11 10 -3 6 -1 10 4 10 6 0 11 -4 11 -10z"/>
<path d="M2081 1494 c0 -11 3 -14 6 -6 3 7 2 16 -1 19 -3 4 -6 -2 -5 -13z"/>
<path d="M2092 1440 c0 -14 2 -19 5 -12 2 6 2 18 0 25 -3 6 -5 1 -5 -13z"/>
<path d="M1940 1335 c-20 -24 -2 -35 56 -35 51 0 54 1 54 25 0 20 -5 25 -25
25 -14 0 -28 -7 -32 -16 -3 -8 -12 -13 -19 -10 -8 3 -14 1 -14 -4 0 -6 -5 -10
-10 -10 -7 0 -7 6 0 20 13 23 8 26 -10 5z m90 -5 c0 -5 -7 -10 -16 -10 -8 0
-12 5 -9 10 3 6 10 10 16 10 5 0 9 -4 9 -10z"/>
<path d="M2092 1285 c0 -16 2 -22 5 -12 2 9 2 23 0 30 -3 6 -5 -1 -5 -18z"/>
<path d="M903 1278 c-30 -15 -29 -36 2 -44 l25 -6 -22 -18 c-19 -15 -20 -20
-9 -34 7 -9 20 -16 27 -16 11 0 12 -4 2 -19 -9 -15 -9 -23 2 -36 17 -20 49
-16 64 8 9 15 7 22 -9 35 -13 11 -21 32 -22 56 -2 22 -8 43 -13 46 -6 4 -8 14
-4 23 7 20 -9 21 -43 5z m47 -88 c0 -5 -7 -10 -15 -10 -8 0 -15 5 -15 10 0 6
7 10 15 10 8 0 15 -4 15 -10z"/>
<path d="M1970 1280 c0 -6 12 -11 28 -12 15 0 34 -1 42 -2 21 -1 26 -36 5 -36
-9 0 -13 5 -10 10 3 6 2 10 -2 10 -5 0 -14 -12 -21 -27 l-12 -28 5 26 c5 29
-20 48 -39 29 -7 -7 -4 -10 10 -11 10 0 13 -3 6 -6 -6 -2 -10 -9 -6 -14 3 -5
-3 -9 -13 -9 -11 -1 -5 -7 16 -15 41 -18 38 -19 44 6 3 12 10 18 16 15 5 -3
16 1 24 9 12 11 17 12 20 2 4 -8 6 -7 6 3 1 30 -26 50 -73 55 -26 2 -46 0 -46
-5z"/>
<path d="M1930 1169 c0 -5 4 -8 9 -5 4 3 16 -3 26 -14 10 -12 13 -20 7 -20 -7
0 -12 4 -12 10 0 9 -35 9 -44 -1 -2 -2 11 -11 29 -20 l33 -15 16 33 c16 34 16
34 -4 28 -11 -4 -20 -2 -20 4 0 6 -9 11 -20 11 -11 0 -20 -5 -20 -11z"/>
<path d="M1430 875 c-10 -12 -10 -18 0 -30 20 -25 55 -15 55 15 0 30 -35 40
-55 15z"/>
</g>
</svg>
